<mxfile host="app.diagrams.net" modified="2023-04-25T10:01:10.471Z" agent="Mozilla/5.0 (Windows NT 10.0; Win64; x64) AppleWebKit/537.36 (KHTML, like Gecko) Chrome/112.0.0.0 Safari/537.36" etag="7hok1t7mGjjSEGUVoTrM" version="21.1.7" type="github" pages="3">
  <diagram name="ekiga_main" id="13e1069c-82ec-6db2-03f1-153e76fe0fe0">
    <mxGraphModel dx="1372" dy="1654" grid="1" gridSize="10" guides="1" tooltips="1" connect="1" arrows="1" fold="1" page="1" pageScale="1" pageWidth="1100" pageHeight="850" background="none" math="0" shadow="0">
      <root>
        <mxCell id="0" />
        <mxCell id="1" parent="0" />
        <mxCell id="7baba1c4bc27f4b0-2" value=":Object" style="shape=umlLifeline;perimeter=lifelinePerimeter;whiteSpace=wrap;html=1;container=1;collapsible=0;recursiveResize=0;outlineConnect=0;rounded=1;shadow=0;comic=0;labelBackgroundColor=none;strokeWidth=1;fontFamily=Verdana;fontSize=12;align=center;" parent="1" vertex="1">
          <mxGeometry x="240" y="80" width="100" height="580" as="geometry" />
        </mxCell>
        <mxCell id="7baba1c4bc27f4b0-10" value="" style="html=1;points=[];perimeter=orthogonalPerimeter;rounded=0;shadow=0;comic=0;labelBackgroundColor=none;strokeWidth=1;fontFamily=Verdana;fontSize=12;align=center;" parent="7baba1c4bc27f4b0-2" vertex="1">
          <mxGeometry x="45" y="100" width="10" height="230" as="geometry" />
        </mxCell>
        <mxCell id="7baba1c4bc27f4b0-3" value=":Object" style="shape=umlLifeline;perimeter=lifelinePerimeter;whiteSpace=wrap;html=1;container=1;collapsible=0;recursiveResize=0;outlineConnect=0;rounded=1;shadow=0;comic=0;labelBackgroundColor=none;strokeWidth=1;fontFamily=Verdana;fontSize=12;align=center;" parent="1" vertex="1">
          <mxGeometry x="400" y="80" width="100" height="580" as="geometry" />
        </mxCell>
        <mxCell id="7baba1c4bc27f4b0-13" value="" style="html=1;points=[];perimeter=orthogonalPerimeter;rounded=0;shadow=0;comic=0;labelBackgroundColor=none;strokeWidth=1;fontFamily=Verdana;fontSize=12;align=center;" parent="7baba1c4bc27f4b0-3" vertex="1">
          <mxGeometry x="45" y="120" width="10" height="200" as="geometry" />
        </mxCell>
        <mxCell id="7baba1c4bc27f4b0-4" value=":Object" style="shape=umlLifeline;perimeter=lifelinePerimeter;whiteSpace=wrap;html=1;container=1;collapsible=0;recursiveResize=0;outlineConnect=0;rounded=1;shadow=0;comic=0;labelBackgroundColor=none;strokeWidth=1;fontFamily=Verdana;fontSize=12;align=center;" parent="1" vertex="1">
          <mxGeometry x="540" y="80" width="100" height="580" as="geometry" />
        </mxCell>
        <mxCell id="7baba1c4bc27f4b0-5" value=":Object" style="shape=umlLifeline;perimeter=lifelinePerimeter;whiteSpace=wrap;html=1;container=1;collapsible=0;recursiveResize=0;outlineConnect=0;rounded=1;shadow=0;comic=0;labelBackgroundColor=none;strokeWidth=1;fontFamily=Verdana;fontSize=12;align=center;" parent="1" vertex="1">
          <mxGeometry x="680" y="80" width="100" height="580" as="geometry" />
        </mxCell>
        <mxCell id="7baba1c4bc27f4b0-6" value=":Object" style="shape=umlLifeline;perimeter=lifelinePerimeter;whiteSpace=wrap;html=1;container=1;collapsible=0;recursiveResize=0;outlineConnect=0;rounded=1;shadow=0;comic=0;labelBackgroundColor=none;strokeWidth=1;fontFamily=Verdana;fontSize=12;align=center;" parent="1" vertex="1">
          <mxGeometry x="820" y="80" width="100" height="580" as="geometry" />
        </mxCell>
        <mxCell id="7baba1c4bc27f4b0-7" value=":Object" style="shape=umlLifeline;perimeter=lifelinePerimeter;whiteSpace=wrap;html=1;container=1;collapsible=0;recursiveResize=0;outlineConnect=0;rounded=1;shadow=0;comic=0;labelBackgroundColor=none;strokeWidth=1;fontFamily=Verdana;fontSize=12;align=center;" parent="1" vertex="1">
          <mxGeometry x="960" y="80" width="100" height="580" as="geometry" />
        </mxCell>
        <mxCell id="7baba1c4bc27f4b0-8" value=":Object" style="shape=umlLifeline;perimeter=lifelinePerimeter;whiteSpace=wrap;html=1;container=1;collapsible=0;recursiveResize=0;outlineConnect=0;rounded=1;shadow=0;comic=0;labelBackgroundColor=none;strokeWidth=1;fontFamily=Verdana;fontSize=12;align=center;" parent="1" vertex="1">
          <mxGeometry x="100" y="80" width="100" height="580" as="geometry" />
        </mxCell>
        <mxCell id="7baba1c4bc27f4b0-9" value="" style="html=1;points=[];perimeter=orthogonalPerimeter;rounded=0;shadow=0;comic=0;labelBackgroundColor=none;strokeWidth=1;fontFamily=Verdana;fontSize=12;align=center;" parent="7baba1c4bc27f4b0-8" vertex="1">
          <mxGeometry x="45" y="100" width="10" height="440" as="geometry" />
        </mxCell>
        <mxCell id="7baba1c4bc27f4b0-16" value="" style="html=1;points=[];perimeter=orthogonalPerimeter;rounded=0;shadow=0;comic=0;labelBackgroundColor=none;strokeWidth=1;fontFamily=Verdana;fontSize=12;align=center;" parent="1" vertex="1">
          <mxGeometry x="585" y="220" width="10" height="180" as="geometry" />
        </mxCell>
        <mxCell id="7baba1c4bc27f4b0-17" value="dispatch" style="html=1;verticalAlign=bottom;endArrow=block;labelBackgroundColor=none;fontFamily=Verdana;fontSize=12;edgeStyle=elbowEdgeStyle;elbow=vertical;" parent="1" source="7baba1c4bc27f4b0-13" target="7baba1c4bc27f4b0-16" edge="1">
          <mxGeometry relative="1" as="geometry">
            <mxPoint x="510" y="220" as="sourcePoint" />
            <Array as="points">
              <mxPoint x="460" y="220" />
            </Array>
          </mxGeometry>
        </mxCell>
        <mxCell id="7baba1c4bc27f4b0-19" value="" style="html=1;points=[];perimeter=orthogonalPerimeter;rounded=0;shadow=0;comic=0;labelBackgroundColor=none;strokeWidth=1;fontFamily=Verdana;fontSize=12;align=center;" parent="1" vertex="1">
          <mxGeometry x="725" y="230" width="10" height="40" as="geometry" />
        </mxCell>
        <mxCell id="7baba1c4bc27f4b0-20" value="dispatch" style="html=1;verticalAlign=bottom;endArrow=block;entryX=0;entryY=0;labelBackgroundColor=none;fontFamily=Verdana;fontSize=12;edgeStyle=elbowEdgeStyle;elbow=vertical;" parent="1" source="7baba1c4bc27f4b0-16" target="7baba1c4bc27f4b0-19" edge="1">
          <mxGeometry relative="1" as="geometry">
            <mxPoint x="650" y="230" as="sourcePoint" />
          </mxGeometry>
        </mxCell>
        <mxCell id="7baba1c4bc27f4b0-21" value="return" style="html=1;verticalAlign=bottom;endArrow=open;dashed=1;endSize=8;labelBackgroundColor=none;fontFamily=Verdana;fontSize=12;edgeStyle=elbowEdgeStyle;elbow=vertical;" parent="1" source="7baba1c4bc27f4b0-19" target="7baba1c4bc27f4b0-16" edge="1">
          <mxGeometry relative="1" as="geometry">
            <mxPoint x="650" y="306" as="targetPoint" />
            <Array as="points">
              <mxPoint x="670" y="260" />
              <mxPoint x="700" y="260" />
            </Array>
          </mxGeometry>
        </mxCell>
        <mxCell id="7baba1c4bc27f4b0-22" value="" style="html=1;points=[];perimeter=orthogonalPerimeter;rounded=0;shadow=0;comic=0;labelBackgroundColor=none;strokeWidth=1;fontFamily=Verdana;fontSize=12;align=center;" parent="1" vertex="1">
          <mxGeometry x="585" y="440" width="10" height="140" as="geometry" />
        </mxCell>
        <mxCell id="7baba1c4bc27f4b0-23" value="dispatch" style="html=1;verticalAlign=bottom;endArrow=block;entryX=0;entryY=0;labelBackgroundColor=none;fontFamily=Verdana;fontSize=12;" parent="1" source="7baba1c4bc27f4b0-9" target="7baba1c4bc27f4b0-22" edge="1">
          <mxGeometry relative="1" as="geometry">
            <mxPoint x="510" y="420" as="sourcePoint" />
          </mxGeometry>
        </mxCell>
        <mxCell id="7baba1c4bc27f4b0-25" value="" style="html=1;points=[];perimeter=orthogonalPerimeter;rounded=0;shadow=0;comic=0;labelBackgroundColor=none;strokeColor=#000000;strokeWidth=1;fillColor=#FFFFFF;fontFamily=Verdana;fontSize=12;fontColor=#000000;align=center;" parent="1" vertex="1">
          <mxGeometry x="1005" y="460" width="10" height="30" as="geometry" />
        </mxCell>
        <mxCell id="7baba1c4bc27f4b0-26" value="dispatch" style="html=1;verticalAlign=bottom;endArrow=block;entryX=0;entryY=0;labelBackgroundColor=none;fontFamily=Verdana;fontSize=12;" parent="1" source="7baba1c4bc27f4b0-22" target="7baba1c4bc27f4b0-25" edge="1">
          <mxGeometry relative="1" as="geometry">
            <mxPoint x="930" y="340" as="sourcePoint" />
          </mxGeometry>
        </mxCell>
        <mxCell id="7baba1c4bc27f4b0-27" value="return" style="html=1;verticalAlign=bottom;endArrow=open;dashed=1;endSize=8;exitX=0;exitY=0.95;labelBackgroundColor=none;fontFamily=Verdana;fontSize=12;" parent="1" source="7baba1c4bc27f4b0-25" target="7baba1c4bc27f4b0-22" edge="1">
          <mxGeometry relative="1" as="geometry">
            <mxPoint x="930" y="416" as="targetPoint" />
          </mxGeometry>
        </mxCell>
        <mxCell id="7baba1c4bc27f4b0-28" value="" style="html=1;points=[];perimeter=orthogonalPerimeter;rounded=0;shadow=0;comic=0;labelBackgroundColor=none;strokeWidth=1;fontFamily=Verdana;fontSize=12;align=center;" parent="1" vertex="1">
          <mxGeometry x="870" y="550" width="10" height="60" as="geometry" />
        </mxCell>
        <mxCell id="7baba1c4bc27f4b0-29" value="dispatch" style="html=1;verticalAlign=bottom;endArrow=block;entryX=0;entryY=0;labelBackgroundColor=none;fontFamily=Verdana;fontSize=12;edgeStyle=elbowEdgeStyle;elbow=vertical;" parent="1" source="7baba1c4bc27f4b0-37" target="7baba1c4bc27f4b0-28" edge="1">
          <mxGeometry relative="1" as="geometry">
            <mxPoint x="800" y="550" as="sourcePoint" />
          </mxGeometry>
        </mxCell>
        <mxCell id="7baba1c4bc27f4b0-30" value="return" style="html=1;verticalAlign=bottom;endArrow=open;dashed=1;endSize=8;labelBackgroundColor=none;fontFamily=Verdana;fontSize=12;edgeStyle=elbowEdgeStyle;elbow=vertical;" parent="1" source="7baba1c4bc27f4b0-28" target="7baba1c4bc27f4b0-9" edge="1">
          <mxGeometry relative="1" as="geometry">
            <mxPoint x="800" y="626" as="targetPoint" />
            <Array as="points">
              <mxPoint x="570" y="600" />
            </Array>
          </mxGeometry>
        </mxCell>
        <mxCell id="7baba1c4bc27f4b0-11" value="dispatch" style="html=1;verticalAlign=bottom;endArrow=block;entryX=0;entryY=0;labelBackgroundColor=none;fontFamily=Verdana;fontSize=12;edgeStyle=elbowEdgeStyle;elbow=vertical;" parent="1" source="7baba1c4bc27f4b0-9" target="7baba1c4bc27f4b0-10" edge="1">
          <mxGeometry relative="1" as="geometry">
            <mxPoint x="220" y="190" as="sourcePoint" />
          </mxGeometry>
        </mxCell>
        <mxCell id="7baba1c4bc27f4b0-14" value="dispatch" style="html=1;verticalAlign=bottom;endArrow=block;entryX=0;entryY=0;labelBackgroundColor=none;fontFamily=Verdana;fontSize=12;edgeStyle=elbowEdgeStyle;elbow=vertical;" parent="1" source="7baba1c4bc27f4b0-10" target="7baba1c4bc27f4b0-13" edge="1">
          <mxGeometry relative="1" as="geometry">
            <mxPoint x="370" y="200" as="sourcePoint" />
          </mxGeometry>
        </mxCell>
        <mxCell id="7baba1c4bc27f4b0-34" value="" style="html=1;points=[];perimeter=orthogonalPerimeter;rounded=0;shadow=0;comic=0;labelBackgroundColor=none;strokeWidth=1;fontFamily=Verdana;fontSize=12;align=center;" parent="1" vertex="1">
          <mxGeometry x="590" y="300" width="10" height="70" as="geometry" />
        </mxCell>
        <mxCell id="7baba1c4bc27f4b0-35" value="dispatch" style="html=1;verticalAlign=bottom;endArrow=block;labelBackgroundColor=none;fontFamily=Verdana;fontSize=12;elbow=vertical;edgeStyle=orthogonalEdgeStyle;curved=1;entryX=1;entryY=0.286;entryPerimeter=0;exitX=1.038;exitY=0.345;exitPerimeter=0;" parent="1" source="7baba1c4bc27f4b0-16" target="7baba1c4bc27f4b0-34" edge="1">
          <mxGeometry relative="1" as="geometry">
            <mxPoint x="465" y="230" as="sourcePoint" />
            <mxPoint x="595" y="230" as="targetPoint" />
            <Array as="points">
              <mxPoint x="650" y="282" />
              <mxPoint x="650" y="320" />
            </Array>
          </mxGeometry>
        </mxCell>
        <mxCell id="7baba1c4bc27f4b0-36" value="dispatch" style="html=1;verticalAlign=bottom;endArrow=block;labelBackgroundColor=none;fontFamily=Verdana;fontSize=12;elbow=vertical;edgeStyle=orthogonalEdgeStyle;curved=1;exitX=1.066;exitY=0.713;exitPerimeter=0;" parent="1" source="7baba1c4bc27f4b0-34" edge="1">
          <mxGeometry relative="1" as="geometry">
            <mxPoint x="610.3333333333333" y="350" as="sourcePoint" />
            <mxPoint x="595" y="389" as="targetPoint" />
            <Array as="points">
              <mxPoint x="650" y="350" />
              <mxPoint x="650" y="389" />
            </Array>
          </mxGeometry>
        </mxCell>
        <mxCell id="7baba1c4bc27f4b0-37" value="" style="html=1;points=[];perimeter=orthogonalPerimeter;rounded=0;shadow=0;comic=0;labelBackgroundColor=none;strokeWidth=1;fontFamily=Verdana;fontSize=12;align=center;" parent="1" vertex="1">
          <mxGeometry x="590" y="520" width="10" height="40" as="geometry" />
        </mxCell>
        <mxCell id="7baba1c4bc27f4b0-39" value="dispatch" style="html=1;verticalAlign=bottom;endArrow=block;labelBackgroundColor=none;fontFamily=Verdana;fontSize=12;elbow=vertical;edgeStyle=orthogonalEdgeStyle;curved=1;entryX=1;entryY=0.286;entryPerimeter=0;exitX=1.038;exitY=0.345;exitPerimeter=0;" parent="1" edge="1">
          <mxGeometry relative="1" as="geometry">
            <mxPoint x="595.3333333333335" y="501" as="sourcePoint" />
            <mxPoint x="600.3333333333335" y="539.3333333333334" as="targetPoint" />
            <Array as="points">
              <mxPoint x="650" y="501" />
              <mxPoint x="650" y="539" />
            </Array>
          </mxGeometry>
        </mxCell>
        <mxCell id="7baba1c4bc27f4b0-40" value="Note" style="shape=note;whiteSpace=wrap;html=1;size=14;verticalAlign=top;align=left;spacingTop=-6;rounded=0;shadow=0;comic=0;labelBackgroundColor=none;strokeWidth=1;fontFamily=Verdana;fontSize=12" parent="1" vertex="1">
          <mxGeometry x="100" y="30" width="100" height="35" as="geometry" />
        </mxCell>
        <mxCell id="7baba1c4bc27f4b0-41" value="Note" style="shape=note;whiteSpace=wrap;html=1;size=14;verticalAlign=top;align=left;spacingTop=-6;rounded=0;shadow=0;comic=0;labelBackgroundColor=none;strokeWidth=1;fontFamily=Verdana;fontSize=12" parent="1" vertex="1">
          <mxGeometry x="240" y="30" width="100" height="35" as="geometry" />
        </mxCell>
        <mxCell id="7baba1c4bc27f4b0-42" value="Note" style="shape=note;whiteSpace=wrap;html=1;size=14;verticalAlign=top;align=left;spacingTop=-6;rounded=0;shadow=0;comic=0;labelBackgroundColor=none;strokeWidth=1;fontFamily=Verdana;fontSize=12" parent="1" vertex="1">
          <mxGeometry x="400" y="30" width="100" height="35" as="geometry" />
        </mxCell>
        <mxCell id="7baba1c4bc27f4b0-43" value="Note" style="shape=note;whiteSpace=wrap;html=1;size=14;verticalAlign=top;align=left;spacingTop=-6;rounded=0;shadow=0;comic=0;labelBackgroundColor=none;strokeWidth=1;fontFamily=Verdana;fontSize=12" parent="1" vertex="1">
          <mxGeometry x="540" y="30" width="100" height="35" as="geometry" />
        </mxCell>
        <mxCell id="7baba1c4bc27f4b0-45" value="Note" style="shape=note;whiteSpace=wrap;html=1;size=14;verticalAlign=top;align=left;spacingTop=-6;rounded=0;shadow=0;comic=0;labelBackgroundColor=none;strokeWidth=1;fontFamily=Verdana;fontSize=12" parent="1" vertex="1">
          <mxGeometry x="820" y="30" width="100" height="35" as="geometry" />
        </mxCell>
        <mxCell id="7baba1c4bc27f4b0-44" value="Note" style="shape=note;whiteSpace=wrap;html=1;size=14;verticalAlign=top;align=left;spacingTop=-6;rounded=0;shadow=0;comic=0;labelBackgroundColor=none;strokeWidth=1;fontFamily=Verdana;fontSize=12" parent="1" vertex="1">
          <mxGeometry x="680" y="30" width="100" height="35" as="geometry" />
        </mxCell>
        <mxCell id="7baba1c4bc27f4b0-46" value="Note" style="shape=note;whiteSpace=wrap;html=1;size=14;verticalAlign=top;align=left;spacingTop=-6;rounded=0;shadow=0;comic=0;labelBackgroundColor=none;strokeWidth=1;fontFamily=Verdana;fontSize=12" parent="1" vertex="1">
          <mxGeometry x="960" y="30" width="100" height="35" as="geometry" />
        </mxCell>
        <mxCell id="gQu-EgqjIdYCseF4d5mw-7" value="" style="edgeStyle=orthogonalEdgeStyle;rounded=0;orthogonalLoop=1;jettySize=auto;html=1;" edge="1" parent="1" source="gQu-EgqjIdYCseF4d5mw-1" target="gQu-EgqjIdYCseF4d5mw-6">
          <mxGeometry relative="1" as="geometry" />
        </mxCell>
        <mxCell id="gQu-EgqjIdYCseF4d5mw-8" style="edgeStyle=orthogonalEdgeStyle;rounded=0;orthogonalLoop=1;jettySize=auto;html=1;entryX=0;entryY=0.5;entryDx=0;entryDy=0;" edge="1" parent="1" source="gQu-EgqjIdYCseF4d5mw-1" target="gQu-EgqjIdYCseF4d5mw-2">
          <mxGeometry relative="1" as="geometry" />
        </mxCell>
        <mxCell id="gQu-EgqjIdYCseF4d5mw-10" style="edgeStyle=orthogonalEdgeStyle;rounded=0;orthogonalLoop=1;jettySize=auto;html=1;exitX=1;exitY=0.5;exitDx=0;exitDy=0;entryX=0;entryY=0.5;entryDx=0;entryDy=0;" edge="1" parent="1" source="gQu-EgqjIdYCseF4d5mw-1" target="eDSKi7YM4I0om17HCzt9-1">
          <mxGeometry relative="1" as="geometry">
            <mxPoint x="490" y="-175" as="targetPoint" />
          </mxGeometry>
        </mxCell>
        <mxCell id="gQu-EgqjIdYCseF4d5mw-1" value="ekiga_main" style="html=1;whiteSpace=wrap;" vertex="1" parent="1">
          <mxGeometry x="110" y="-300" width="140" height="50" as="geometry" />
        </mxCell>
        <UserObject label="engine_init" link="data:page/id,sQ9oNI7Usirow8br0qx9" id="eDSKi7YM4I0om17HCzt9-1">
          <mxCell style="fontColor=#0000EE;fontStyle=4;rounded=1;overflow=hidden;spacing=10;" vertex="1" parent="1">
            <mxGeometry x="490" y="-195" width="120" height="50" as="geometry" />
          </mxCell>
        </UserObject>
        <mxCell id="gQu-EgqjIdYCseF4d5mw-2" value="gm_application_new" style="html=1;whiteSpace=wrap;" vertex="1" parent="1">
          <mxGeometry x="490" y="-400" width="110" height="50" as="geometry" />
        </mxCell>
        <mxCell id="gQu-EgqjIdYCseF4d5mw-6" value="C9_VcapVenc_init" style="html=1;whiteSpace=wrap;" vertex="1" parent="1">
          <mxGeometry x="490" y="-300" width="110" height="50" as="geometry" />
        </mxCell>
      </root>
    </mxGraphModel>
  </diagram>
  <diagram id="sQ9oNI7Usirow8br0qx9" name="engine_init">
    <mxGraphModel dx="1372" dy="1973" grid="1" gridSize="10" guides="1" tooltips="1" connect="1" arrows="1" fold="1" page="1" pageScale="1" pageWidth="827" pageHeight="1169" math="0" shadow="0">
      <root>
        <mxCell id="0" />
        <mxCell id="1" parent="0" />
        <mxCell id="-shQEy_NEgaJKzDIcHlw-10" style="edgeStyle=orthogonalEdgeStyle;rounded=0;orthogonalLoop=1;jettySize=auto;html=1;" edge="1" parent="1" source="wrvQ9h7CXD9r9QgLEHSX-1" target="-shQEy_NEgaJKzDIcHlw-1">
          <mxGeometry relative="1" as="geometry" />
        </mxCell>
        <mxCell id="-shQEy_NEgaJKzDIcHlw-11" style="edgeStyle=orthogonalEdgeStyle;rounded=0;orthogonalLoop=1;jettySize=auto;html=1;entryX=0;entryY=0.5;entryDx=0;entryDy=0;" edge="1" parent="1" source="wrvQ9h7CXD9r9QgLEHSX-1" target="-shQEy_NEgaJKzDIcHlw-3">
          <mxGeometry relative="1" as="geometry" />
        </mxCell>
        <mxCell id="-shQEy_NEgaJKzDIcHlw-12" style="edgeStyle=orthogonalEdgeStyle;rounded=0;orthogonalLoop=1;jettySize=auto;html=1;entryX=0;entryY=0.5;entryDx=0;entryDy=0;" edge="1" parent="1" source="wrvQ9h7CXD9r9QgLEHSX-1" target="benARrttGZBLRWTV01FH-1">
          <mxGeometry relative="1" as="geometry">
            <mxPoint x="490" y="245" as="targetPoint" />
          </mxGeometry>
        </mxCell>
        <mxCell id="-shQEy_NEgaJKzDIcHlw-13" style="edgeStyle=orthogonalEdgeStyle;rounded=0;orthogonalLoop=1;jettySize=auto;html=1;entryX=0;entryY=0.5;entryDx=0;entryDy=0;" edge="1" parent="1" source="wrvQ9h7CXD9r9QgLEHSX-1" target="-shQEy_NEgaJKzDIcHlw-6">
          <mxGeometry relative="1" as="geometry" />
        </mxCell>
        <mxCell id="-shQEy_NEgaJKzDIcHlw-14" style="edgeStyle=orthogonalEdgeStyle;rounded=0;orthogonalLoop=1;jettySize=auto;html=1;entryX=0;entryY=0.5;entryDx=0;entryDy=0;" edge="1" parent="1" source="wrvQ9h7CXD9r9QgLEHSX-1" target="-shQEy_NEgaJKzDIcHlw-7">
          <mxGeometry relative="1" as="geometry" />
        </mxCell>
        <mxCell id="-shQEy_NEgaJKzDIcHlw-15" style="edgeStyle=orthogonalEdgeStyle;rounded=0;orthogonalLoop=1;jettySize=auto;html=1;entryX=0;entryY=0.5;entryDx=0;entryDy=0;" edge="1" parent="1" source="wrvQ9h7CXD9r9QgLEHSX-1" target="-shQEy_NEgaJKzDIcHlw-8">
          <mxGeometry relative="1" as="geometry" />
        </mxCell>
        <mxCell id="-shQEy_NEgaJKzDIcHlw-16" style="edgeStyle=orthogonalEdgeStyle;rounded=0;orthogonalLoop=1;jettySize=auto;html=1;entryX=0;entryY=0.5;entryDx=0;entryDy=0;" edge="1" parent="1" source="wrvQ9h7CXD9r9QgLEHSX-1" target="-shQEy_NEgaJKzDIcHlw-9">
          <mxGeometry relative="1" as="geometry" />
        </mxCell>
        <mxCell id="wrvQ9h7CXD9r9QgLEHSX-1" value="engine_init" style="rounded=0;whiteSpace=wrap;html=1;" vertex="1" parent="1">
          <mxGeometry x="130" y="70" width="120" height="60" as="geometry" />
        </mxCell>
        <mxCell id="-shQEy_NEgaJKzDIcHlw-1" value="&lt;p style=&quot;margin:0px;margin-top:6px;text-align:center;&quot;&gt;&lt;b&gt;engine_init&lt;/b&gt;&lt;br&gt;&lt;/p&gt;&lt;hr&gt;&lt;div style=&quot;border-color: var(--border-color); text-align: center;&quot;&gt;&amp;nbsp; core.add (contact_core);&lt;/div&gt;&lt;div style=&quot;border-color: var(--border-color); text-align: center;&quot;&gt;&amp;nbsp; core.add (chat_core);&lt;/div&gt;&lt;div style=&quot;border-color: var(--border-color); text-align: center;&quot;&gt;&amp;nbsp; core.add (friend_or_foe);&lt;/div&gt;&lt;div style=&quot;border-color: var(--border-color); text-align: center;&quot;&gt;&amp;nbsp; core.add (foe_list);&lt;/div&gt;&lt;div style=&quot;border-color: var(--border-color); text-align: center;&quot;&gt;&amp;nbsp; core.add (videoinput_core);&lt;/div&gt;&lt;div style=&quot;border-color: var(--border-color); text-align: center;&quot;&gt;&amp;nbsp; core.add (videooutput_core);&lt;/div&gt;&lt;div style=&quot;border-color: var(--border-color); text-align: center;&quot;&gt;&amp;nbsp; core.add (audioinput_core);&lt;/div&gt;&lt;div style=&quot;border-color: var(--border-color); text-align: center;&quot;&gt;&amp;nbsp; core.add (audiooutput_core);&lt;/div&gt;&lt;div style=&quot;border-color: var(--border-color); text-align: center;&quot;&gt;&amp;nbsp; core.add (hal_core);&lt;/div&gt;&lt;div style=&quot;border-color: var(--border-color); text-align: center;&quot;&gt;&amp;nbsp; core.add (call_core);&lt;/div&gt;&lt;div style=&quot;border-color: var(--border-color); text-align: center;&quot;&gt;&amp;nbsp; core.add (account_core);&lt;/div&gt;&lt;div style=&quot;border-color: var(--border-color); text-align: center;&quot;&gt;&amp;nbsp; core.add (details);&lt;/div&gt;&lt;div style=&quot;border-color: var(--border-color); text-align: center;&quot;&gt;&amp;nbsp; core.add (presence_core);&lt;/div&gt;" style="align=left;overflow=fill;html=1;dropTarget=0;whiteSpace=wrap;" vertex="1" parent="1">
          <mxGeometry x="490" y="-90" width="180" height="230" as="geometry" />
        </mxCell>
        <mxCell id="-shQEy_NEgaJKzDIcHlw-2" value="" style="shape=component;jettyWidth=8;jettyHeight=4;" vertex="1" parent="-shQEy_NEgaJKzDIcHlw-1">
          <mxGeometry x="1" width="20" height="20" relative="1" as="geometry">
            <mxPoint x="-24" y="4" as="offset" />
          </mxGeometry>
        </mxCell>
        <mxCell id="-shQEy_NEgaJKzDIcHlw-3" value="instance.Start (core)" style="html=1;whiteSpace=wrap;" vertex="1" parent="1">
          <mxGeometry x="490" y="160" width="160" height="50" as="geometry" />
        </mxCell>
        <mxCell id="-shQEy_NEgaJKzDIcHlw-5" value="&lt;div&gt;&amp;nbsp; history_init (kickstart);&lt;/div&gt;&lt;div&gt;&lt;br&gt;&lt;/div&gt;&lt;div&gt;&amp;nbsp; simple_book_init (kickstart);&lt;/div&gt;" style="html=1;whiteSpace=wrap;" vertex="1" parent="1">
          <mxGeometry x="490" y="280" width="160" height="50" as="geometry" />
        </mxCell>
        <mxCell id="-shQEy_NEgaJKzDIcHlw-6" value="plugin_init" style="html=1;whiteSpace=wrap;" vertex="1" parent="1">
          <mxGeometry x="490" y="350" width="160" height="50" as="geometry" />
        </mxCell>
        <mxCell id="-shQEy_NEgaJKzDIcHlw-7" value="c9_plugin_init" style="html=1;whiteSpace=wrap;" vertex="1" parent="1">
          <mxGeometry x="490" y="430" width="160" height="50" as="geometry" />
        </mxCell>
        <mxCell id="-shQEy_NEgaJKzDIcHlw-8" value="&lt;div&gt;&amp;nbsp; videoinput_core-&amp;gt;setup (&quot;any&quot;);&lt;/div&gt;&lt;div&gt;&amp;nbsp; audioinput_core-&amp;gt;setup ();&lt;/div&gt;&lt;div&gt;&amp;nbsp; audiooutput_core-&amp;gt;setup ();&lt;/div&gt;" style="html=1;whiteSpace=wrap;" vertex="1" parent="1">
          <mxGeometry x="490" y="520" width="200" height="65" as="geometry" />
        </mxCell>
        <mxCell id="-shQEy_NEgaJKzDIcHlw-9" value="&lt;div&gt;&amp;nbsp; hal_core-&amp;gt;videoinput_device_added.connect (boost::bind (&amp;amp;Ekiga::VideoInputCore::add_device, boost::ref (*videoinput_core), _1, _2, _3, _4));&lt;/div&gt;&lt;div&gt;&amp;nbsp; hal_core-&amp;gt;videoinput_device_removed.connect (boost::bind (&amp;amp;Ekiga::VideoInputCore::remove_device, boost::ref (*videoinput_core), _1, _2, _3, _4));&lt;/div&gt;&lt;div&gt;&amp;nbsp; hal_core-&amp;gt;audiooutput_device_added.connect (boost::bind (&amp;amp;Ekiga::AudioOutputCore::add_device, boost::ref (*audiooutput_core), _1, _2, _3));&lt;/div&gt;&lt;div&gt;&amp;nbsp; hal_core-&amp;gt;audiooutput_device_removed.connect (boost::bind (&amp;amp;Ekiga::AudioOutputCore::remove_device, boost::ref (*audiooutput_core), _1, _2, _3));&lt;/div&gt;&lt;div&gt;&amp;nbsp; hal_core-&amp;gt;audioinput_device_added.connect (boost::bind (&amp;amp;Ekiga::AudioInputCore::add_device, boost::ref (*audioinput_core), _1, _2, _3));&lt;/div&gt;&lt;div&gt;&amp;nbsp; hal_core-&amp;gt;audioinput_device_removed.connect (boost::bind (&amp;amp;Ekiga::AudioInputCore::remove_device, boost::ref (*audioinput_core), _1, _2, _3));&lt;/div&gt;" style="html=1;whiteSpace=wrap;" vertex="1" parent="1">
          <mxGeometry x="490" y="600" width="830" height="100" as="geometry" />
        </mxCell>
        <UserObject label="opal_init" link="data:page/id,5fzAPs4kgJY6VKO34eEA" id="benARrttGZBLRWTV01FH-1">
          <mxCell style="fontColor=#0000EE;fontStyle=4;rounded=1;overflow=hidden;spacing=10;" vertex="1" parent="1">
            <mxGeometry x="490" y="220" width="160" height="50" as="geometry" />
          </mxCell>
        </UserObject>
      </root>
    </mxGraphModel>
  </diagram>
  <diagram id="5fzAPs4kgJY6VKO34eEA" name="opal_init">
    <mxGraphModel dx="1372" dy="804" grid="1" gridSize="10" guides="1" tooltips="1" connect="1" arrows="1" fold="1" page="1" pageScale="1" pageWidth="827" pageHeight="1169" math="0" shadow="0">
      <root>
        <mxCell id="0" />
        <mxCell id="1" parent="0" />
        <mxCell id="QhF6gsfP-G7483KTyrlo-4" value="" style="edgeStyle=orthogonalEdgeStyle;rounded=0;orthogonalLoop=1;jettySize=auto;html=1;" edge="1" parent="1" source="QhF6gsfP-G7483KTyrlo-1" target="QhF6gsfP-G7483KTyrlo-3">
          <mxGeometry relative="1" as="geometry" />
        </mxCell>
        <mxCell id="QhF6gsfP-G7483KTyrlo-9" style="edgeStyle=orthogonalEdgeStyle;rounded=0;orthogonalLoop=1;jettySize=auto;html=1;entryX=0;entryY=0.5;entryDx=0;entryDy=0;" edge="1" parent="1" source="QhF6gsfP-G7483KTyrlo-1" target="QhF6gsfP-G7483KTyrlo-8">
          <mxGeometry relative="1" as="geometry" />
        </mxCell>
        <mxCell id="QhF6gsfP-G7483KTyrlo-10" style="edgeStyle=orthogonalEdgeStyle;rounded=0;orthogonalLoop=1;jettySize=auto;html=1;entryX=0;entryY=0.5;entryDx=0;entryDy=0;" edge="1" parent="1" source="QhF6gsfP-G7483KTyrlo-1" target="QhF6gsfP-G7483KTyrlo-7">
          <mxGeometry relative="1" as="geometry" />
        </mxCell>
        <mxCell id="QhF6gsfP-G7483KTyrlo-11" style="edgeStyle=orthogonalEdgeStyle;rounded=0;orthogonalLoop=1;jettySize=auto;html=1;entryX=0;entryY=0.5;entryDx=0;entryDy=0;" edge="1" parent="1" source="QhF6gsfP-G7483KTyrlo-1" target="QhF6gsfP-G7483KTyrlo-5">
          <mxGeometry relative="1" as="geometry" />
        </mxCell>
        <mxCell id="QhF6gsfP-G7483KTyrlo-1" value="ekiga/lib/engine/framework/kickstart.cpp&lt;br&gt;Ekiga::KickStart::kick&lt;br&gt;try_initialize_more" style="rounded=0;whiteSpace=wrap;html=1;" vertex="1" parent="1">
          <mxGeometry x="84" y="250" width="270" height="60" as="geometry" />
        </mxCell>
        <mxCell id="QhF6gsfP-G7483KTyrlo-2" value="&lt;div&gt;&amp;nbsp; boost::shared_ptr&amp;lt;Ekiga::Spark&amp;gt; spark (new OPALSpark);&lt;/div&gt;&lt;div&gt;&amp;nbsp; kickstart.add_spark (spark);&lt;/div&gt;" style="whiteSpace=wrap;html=1;" vertex="1" parent="1">
          <mxGeometry x="84" y="160" width="330" height="60" as="geometry" />
        </mxCell>
        <mxCell id="QhF6gsfP-G7483KTyrlo-3" value="&lt;div&gt;&amp;nbsp; &amp;nbsp; boost::shared_ptr&amp;lt;Ekiga::ContactCore&amp;gt; contact_core = core.get&amp;lt;Ekiga::ContactCore&amp;gt; (&quot;contact-core&quot;);&lt;/div&gt;&lt;div&gt;&amp;nbsp; &amp;nbsp; boost::shared_ptr&amp;lt;Ekiga::PresenceCore&amp;gt; presence_core = core.get&amp;lt;Ekiga::PresenceCore&amp;gt; (&quot;presence-core&quot;);&lt;/div&gt;&lt;div&gt;&amp;nbsp; &amp;nbsp; boost::shared_ptr&amp;lt;Ekiga::CallCore&amp;gt; call_core = core.get&amp;lt;Ekiga::CallCore&amp;gt; (&quot;call-core&quot;);&lt;/div&gt;&lt;div&gt;&amp;nbsp; &amp;nbsp; boost::shared_ptr&amp;lt;Ekiga::ChatCore&amp;gt; chat_core = core.get&amp;lt;Ekiga::ChatCore&amp;gt; (&quot;chat-core&quot;);&lt;/div&gt;&lt;div&gt;&amp;nbsp; &amp;nbsp; boost::shared_ptr&amp;lt;Ekiga::AccountCore&amp;gt; account_core = core.get&amp;lt;Ekiga::AccountCore&amp;gt; (&quot;account-core&quot;);&lt;/div&gt;&lt;div&gt;&amp;nbsp; &amp;nbsp; boost::shared_ptr&amp;lt;Ekiga::AudioInputCore&amp;gt; audioinput_core = core.get&amp;lt;Ekiga::AudioInputCore&amp;gt; (&quot;audioinput-core&quot;);&lt;/div&gt;&lt;div&gt;&amp;nbsp; &amp;nbsp; boost::shared_ptr&amp;lt;Ekiga::VideoInputCore&amp;gt; videoinput_core = core.get&amp;lt;Ekiga::VideoInputCore&amp;gt; (&quot;videoinput-core&quot;);&lt;/div&gt;&lt;div&gt;&amp;nbsp; &amp;nbsp; boost::shared_ptr&amp;lt;Ekiga::AudioOutputCore&amp;gt; audiooutput_core = core.get&amp;lt;Ekiga::AudioOutputCore&amp;gt; (&quot;audiooutput-core&quot;);&lt;/div&gt;&lt;div&gt;&amp;nbsp; &amp;nbsp; boost::shared_ptr&amp;lt;Ekiga::VideoOutputCore&amp;gt; videooutput_core = core.get&amp;lt;Ekiga::VideoOutputCore&amp;gt; (&quot;videooutput-core&quot;);&lt;/div&gt;&lt;div&gt;&amp;nbsp; &amp;nbsp; boost::shared_ptr&amp;lt;Ekiga::PersonalDetails&amp;gt; personal_details = core.get&amp;lt;Ekiga::PersonalDetails&amp;gt; (&quot;personal-details&quot;);&lt;/div&gt;&lt;div&gt;&amp;nbsp; &amp;nbsp; boost::shared_ptr&amp;lt;Bank&amp;gt; account_store = core.get&amp;lt;Bank&amp;gt; (&quot;opal-account-store&quot;);&lt;/div&gt;" style="whiteSpace=wrap;html=1;rounded=0;" vertex="1" parent="1">
          <mxGeometry x="509" y="200" width="721" height="160" as="geometry" />
        </mxCell>
        <mxCell id="QhF6gsfP-G7483KTyrlo-5" value="boost::shared_ptr&amp;lt;Opal::Sip::CallManager&amp;gt; sip_call_manager (new Opal::Sip::CallManager (core, endpoint, sip_endpoint))&lt;br&gt;call_core-&amp;gt;add_manager (sip_call_manager)" style="whiteSpace=wrap;html=1;rounded=0;" vertex="1" parent="1">
          <mxGeometry x="510" y="497" width="690" height="60" as="geometry" />
        </mxCell>
        <mxCell id="QhF6gsfP-G7483KTyrlo-7" value="boost::shared_ptr&amp;lt;Opal::H323::CallManager&amp;gt; h323_call_manager (new Opal::H323::CallManager (core, endpoint, h323_endpoint))&lt;br&gt;call_core-&amp;gt;add_manager (h323_call_manager)" style="whiteSpace=wrap;html=1;rounded=0;" vertex="1" parent="1">
          <mxGeometry x="509" y="592" width="721" height="60" as="geometry" />
        </mxCell>
        <mxCell id="QhF6gsfP-G7483KTyrlo-8" value="Opal::EndPoint&amp;amp; endpoint = GnomeMeeting::Process ()-&amp;gt;GetEndPoint ()&lt;br&gt;Opal::Sip::EndPoint&amp;amp; sip_endpoint = endpoint.GetSipEndPoint ()&lt;br&gt;Opal::H323::EndPoint&amp;amp; h323_endpoint = endpoint.GetH323EndPoint ()" style="whiteSpace=wrap;html=1;rounded=0;" vertex="1" parent="1">
          <mxGeometry x="509" y="395" width="721" height="60" as="geometry" />
        </mxCell>
      </root>
    </mxGraphModel>
  </diagram>
</mxfile>
